<svg width="133" height="27" viewBox="0 0 133 27" fill="none" xmlns="http://www.w3.org/2000/svg">
<path d="M12.3489 2.92705C12.6483 2.00574 13.9517 2.00574 14.2511 2.92705L16.0615 8.49909C16.1954 8.91111 16.5794 9.19007 17.0126 9.19007H22.8714C23.8401 9.19007 24.2429 10.4297 23.4592 10.9991L18.7193 14.4428C18.3688 14.6974 18.2221 15.1488 18.356 15.5608L20.1665 21.1329C20.4658 22.0542 19.4114 22.8203 18.6276 22.2509L13.8878 18.8072C13.5373 18.5526 13.0627 18.5526 12.7122 18.8072L7.97235 22.2509C7.18864 22.8203 6.13416 22.0542 6.43351 21.1329L8.24398 15.5608C8.37785 15.1488 8.23119 14.6974 7.88071 14.4428L3.14085 10.9991C2.35713 10.4297 2.75991 9.19007 3.72863 9.19007H9.58742C10.0206 9.19007 10.4046 8.91111 10.5385 8.49909L12.3489 2.92705Z" fill="#FCE00B"/>
<path d="M38.949 2.92705C39.2483 2.00574 40.5517 2.00574 40.8511 2.92705L42.6615 8.49909C42.7954 8.91111 43.1794 9.19007 43.6126 9.19007H49.4714C50.4401 9.19007 50.8429 10.4297 50.0592 10.9991L45.3193 14.4428C44.9688 14.6974 44.8222 15.1488 44.956 15.5608L46.7665 21.1329C47.0658 22.0542 46.0114 22.8203 45.2277 22.2509L40.4878 18.8072C40.1373 18.5526 39.6627 18.5526 39.3122 18.8072L34.5724 22.2509C33.7886 22.8203 32.7342 22.0542 33.0335 21.1329L34.844 15.5608C34.9779 15.1488 34.8312 14.6974 34.4807 14.4428L29.7409 10.9991C28.9571 10.4297 29.3599 9.19007 30.3286 9.19007H36.1874C36.6207 9.19007 37.0046 8.91111 37.1385 8.49909L38.949 2.92705Z" fill="#FCE00B"/>
<path d="M65.549 2.92705C65.8483 2.00574 67.1517 2.00574 67.4511 2.92705L69.2615 8.49909C69.3954 8.91111 69.7794 9.19007 70.2126 9.19007H76.0714C77.0401 9.19007 77.4429 10.4297 76.6592 10.9991L71.9193 14.4428C71.5688 14.6974 71.4222 15.1488 71.556 15.5608L73.3665 21.1329C73.6659 22.0542 72.6114 22.8203 71.8277 22.2509L67.0878 18.8072C66.7373 18.5526 66.2627 18.5526 65.9122 18.8072L61.1724 22.2509C60.3887 22.8203 59.3342 22.0542 59.6335 21.1329L61.444 15.5608C61.5779 15.1488 61.4312 14.6974 61.0807 14.4428L56.3409 10.9991C55.5571 10.4297 55.9599 9.19007 56.9286 9.19007H62.7874C63.2207 9.19007 63.6046 8.91111 63.7385 8.49909L65.549 2.92705Z" fill="#FCE00B"/>
<path d="M92.1489 2.92705C92.4483 2.00574 93.7517 2.00574 94.051 2.92705L95.8615 8.49909C95.9954 8.91111 96.3793 9.19007 96.8126 9.19007H102.671C103.64 9.19007 104.043 10.4297 103.259 10.9991L98.5193 14.4428C98.1688 14.6974 98.0221 15.1488 98.156 15.5608L99.9665 21.1329C100.266 22.0542 99.2113 22.8203 98.4276 22.2509L93.6878 18.8072C93.3373 18.5526 92.8627 18.5526 92.5122 18.8072L87.7723 22.2509C86.9886 22.8203 85.9341 22.0542 86.2335 21.1329L88.044 15.5608C88.1778 15.1488 88.0312 14.6974 87.6807 14.4428L82.9408 10.9991C82.1571 10.4297 82.5599 9.19007 83.5286 9.19007H89.3874C89.8206 9.19007 90.2046 8.91111 90.3385 8.49909L92.1489 2.92705Z" fill="#FCE00B"/>
<path d="M118.749 2.92705C119.048 2.00574 120.352 2.00574 120.651 2.92705L122.462 8.49909C122.595 8.91111 122.979 9.19007 123.413 9.19007H129.271C130.24 9.19007 130.643 10.4297 129.859 10.9991L125.119 14.4428C124.769 14.6974 124.622 15.1488 124.756 15.5608L126.566 21.1329C126.866 22.0542 125.811 22.8203 125.028 22.2509L120.288 18.8072C119.937 18.5526 119.463 18.5526 119.112 18.8072L114.372 22.2509C113.589 22.8203 112.534 22.0542 112.834 21.1329L114.644 15.5608C114.778 15.1488 114.631 14.6974 114.281 14.4428L109.541 10.9991C108.757 10.4297 109.16 9.19007 110.129 9.19007H115.987C116.421 9.19007 116.805 8.91111 116.938 8.49909L118.749 2.92705Z" fill="#FCE00B"/>
</svg>
